<svg width="360" height="361" viewBox="0 0 360 361" fill="none" xmlns="http://www.w3.org/2000/svg">
<g opacity="0.6">
<rect opacity="0.2" x="359.203" y="180.763" width="180.039" height="180.041" transform="rotate(90 359.203 180.763)" fill="#4A3AFF"/>
<path opacity="0.2" d="M358.359 180.763L262.892 273.617L179.162 359.96L179.162 180.763L358.359 180.763Z" fill="#4A3AFF"/>
<path opacity="0.14" d="M179.162 270.501C179.162 282.249 176.848 293.882 172.352 304.736C167.856 315.589 161.267 325.451 152.96 333.758C144.653 342.065 134.791 348.655 123.937 353.15C113.084 357.646 101.451 359.96 89.703 359.96C77.9551 359.96 66.3222 357.646 55.4686 353.15C44.615 348.655 34.7532 342.065 26.4462 333.758C18.1392 325.451 11.5497 315.589 7.05398 304.736C2.55826 293.882 0.244345 282.249 0.244349 270.501L89.703 270.501H179.162Z" fill="#4A3AFF"/>
<path opacity="0.07" d="M179.162 180.763L275.078 87.4719L359.203 0.721889L359.203 180.763L179.162 180.763Z" fill="#4A3AFF"/>
<path opacity="0.28" d="M0.244381 181.431C0.244381 193.178 2.5583 204.811 7.05402 215.665C11.5497 226.518 18.1392 236.38 26.4462 244.687C34.7532 252.994 44.6151 259.584 55.4687 264.08C66.3223 268.575 77.9552 270.889 89.703 270.889C101.451 270.889 113.084 268.575 123.937 264.08C134.791 259.584 144.653 252.994 152.96 244.687C161.267 236.38 167.856 226.518 172.352 215.665C176.848 204.811 179.162 193.178 179.162 181.43L89.703 181.431L0.244381 181.431Z" fill="#4A3AFF"/>
</g>
</svg>
